<svg xmlns="http://www.w3.org/2000/svg" xmlns:xlink="http://www.w3.org/1999/xlink" width="500" zoomAndPan="magnify" viewBox="0 0 375 374.999991" height="500" preserveAspectRatio="xMidYMid meet" version="1.0"><defs><g/><clipPath id="id1"><path d="M 113 83 L 261 83 L 261 212.699219 L 113 212.699219 Z M 113 83 " clip-rule="nonzero"/></clipPath></defs><g clip-path="url(#id1)"><path fill="rgb(10.978699%, 15.289307%, 44.709778%)" d="M 219.527344 83.441406 L 209.929688 100.042969 L 139.253906 100.042969 L 148.851562 83.429688 Z M 234.320312 102.246094 L 224.722656 118.878906 L 215.867188 103.542969 L 225.464844 86.886719 Z M 247.621094 125.292969 L 238.023438 141.945312 L 228.691406 125.746094 L 238.289062 109.109375 Z M 238.570312 186.742188 L 229.335938 170.730469 L 238.023438 155.628906 L 247.25 171.671875 Z M 225.457031 209.472656 L 216.238281 193.476562 L 225.382812 177.609375 L 234.609375 193.59375 Z M 202.925781 170.394531 L 212.070312 154.535156 L 221.433594 170.730469 L 212.273438 186.609375 Z M 198.96875 163.53125 L 190.117188 148.167969 L 199.269531 132.308594 L 208.132812 147.671875 Z M 203.207031 125.441406 L 211.898438 110.339844 L 220.746094 125.746094 L 212.054688 140.847656 Z M 205.945312 106.90625 L 197.335938 121.84375 L 126.714844 121.84375 L 135.324219 106.921875 Z M 193.382812 128.710938 L 184.1875 144.734375 L 113.511719 144.734375 L 122.761719 128.710938 Z M 157.679688 151.597656 L 193.003906 212.890625 L 174.496094 212.890625 L 139.171875 151.597656 Z M 200.910156 212.890625 L 165.585938 151.597656 L 184.1875 151.597656 L 195.507812 171.238281 C 195.65625 172.011719 196.03125 172.660156 196.625 173.175781 L 208.804688 194.292969 C 208.949219 195.066406 209.316406 195.707031 209.910156 196.222656 L 219.507812 212.902344 Z M 225.382812 163.867188 L 216.039062 147.671875 L 224.730469 132.570312 L 234.066406 148.769531 Z M 113.511719 151.597656 L 131.261719 151.597656 L 166.589844 212.890625 L 148.859375 212.890625 Z M 260.800781 148.167969 L 251.203125 164.808594 L 242 148.796875 L 251.597656 132.15625 Z M 260.800781 148.167969 " fill-opacity="1" fill-rule="nonzero"/></g><g fill="rgb(10.978699%, 15.289307%, 44.709778%)" fill-opacity="1"><g transform="translate(49.381569, 258.991682)"><g><path d="M 10.703125 -11.570312 C 12.441406 -11.570312 14.890625 -11.136719 14.890625 -11.136719 C 14.890625 -11.136719 15.167969 -10.386719 15.167969 -7.386719 C 15.167969 -4.382812 14.890625 -4.265625 14.890625 -4.265625 C 14.890625 -4.265625 12.441406 -3.871094 10.703125 -3.871094 C 6.515625 -3.871094 3.199219 -4.582031 1.738281 -4.898438 C 1.894531 -2.015625 2.371094 -0.789062 2.371094 -0.789062 C 4.265625 -0.0390625 8.371094 0.355469 10.703125 0.355469 C 13.035156 0.355469 17.496094 -0.0390625 19.390625 -0.789062 C 19.390625 -0.789062 20.0625 -2.726562 20.0625 -7.386719 C 20.0625 -12.046875 19.390625 -14.613281 19.390625 -14.613281 C 17.496094 -15.363281 13.035156 -15.835938 10.703125 -15.835938 C 8.964844 -15.835938 6.554688 -16.273438 6.554688 -16.273438 C 6.554688 -16.273438 6.238281 -16.785156 6.238281 -19.074219 C 6.238281 -21.367188 6.554688 -21.878906 6.554688 -21.878906 C 6.554688 -21.878906 8.964844 -22.273438 10.703125 -22.273438 C 15.046875 -22.273438 18.285156 -21.644531 19.707031 -21.367188 C 19.511719 -24.289062 19.074219 -25.355469 19.074219 -25.355469 C 17.179688 -26.105469 13.035156 -26.539062 10.703125 -26.539062 C 8.371094 -26.539062 3.949219 -26.105469 2.054688 -25.355469 C 2.054688 -25.355469 1.34375 -23.738281 1.34375 -19.074219 C 1.34375 -14.414062 2.054688 -12.796875 2.054688 -12.796875 C 3.949219 -12.046875 8.371094 -11.570312 10.703125 -11.570312 Z M 10.703125 -11.570312 "/></g></g></g><g fill="rgb(10.978699%, 15.289307%, 44.709778%)" fill-opacity="1"><g transform="translate(72.840294, 258.991682)"><g><path d="M 22.078125 -26.265625 L 16.863281 -26.265625 C 16.234375 -25.160156 15.480469 -23.933594 14.691406 -22.671875 C 13.191406 -20.300781 11.019531 -17.21875 9.914062 -15.640625 L 6.398438 -15.640625 L 6.398438 -26.304688 L 1.5 -26.304688 L 1.5 0 L 6.398438 0 L 6.398438 -11.414062 L 9.875 -11.414062 C 10.820312 -9.914062 12.835938 -6.714844 14.574219 -4.027344 C 15.757812 -2.171875 16.589844 -0.988281 17.339844 0 L 23.066406 0 C 23.066406 0 20.183594 -3.832031 18.640625 -6.238281 C 16.863281 -9.003906 14.140625 -13.703125 14.140625 -13.703125 C 14.140625 -13.703125 17.023438 -17.695312 18.40625 -19.867188 C 20.457031 -23.105469 21.207031 -24.449219 22.078125 -26.265625 Z M 22.078125 -26.265625 "/></g></g></g><g fill="rgb(10.978699%, 15.289307%, 44.709778%)" fill-opacity="1"><g transform="translate(98.431605, 258.991682)"><g><path d="M 1.539062 -26.304688 L 1.539062 0 L 6.4375 0 L 6.4375 -26.304688 Z M 1.539062 -26.304688 "/></g></g></g><g fill="rgb(10.978699%, 15.289307%, 44.709778%)" fill-opacity="1"><g transform="translate(108.463015, 258.991682)"><g><path d="M 6.398438 -4.265625 L 6.398438 -26.304688 L 1.539062 -26.304688 L 1.539062 0 L 18.484375 0 C 18.957031 -1.265625 19.351562 -2.84375 19.511719 -4.265625 Z M 6.398438 -4.265625 "/></g></g></g><g fill="rgb(10.978699%, 15.289307%, 44.709778%)" fill-opacity="1"><g transform="translate(130.973931, 258.991682)"><g><path d="M 6.398438 -4.265625 L 6.398438 -26.304688 L 1.539062 -26.304688 L 1.539062 0 L 18.484375 0 C 18.957031 -1.265625 19.351562 -2.84375 19.511719 -4.265625 Z M 6.398438 -4.265625 "/></g></g></g><g fill="rgb(10.978699%, 15.289307%, 44.709778%)" fill-opacity="1"><g transform="translate(153.484847, 258.991682)"><g/></g></g><g fill="rgb(10.978699%, 15.289307%, 44.709778%)" fill-opacity="1"><g transform="translate(167.268007, 258.991682)"><g><path d="M 10.703125 -11.570312 C 12.441406 -11.570312 14.890625 -11.136719 14.890625 -11.136719 C 14.890625 -11.136719 15.167969 -10.386719 15.167969 -7.386719 C 15.167969 -4.382812 14.890625 -4.265625 14.890625 -4.265625 C 14.890625 -4.265625 12.441406 -3.871094 10.703125 -3.871094 C 6.515625 -3.871094 3.199219 -4.582031 1.738281 -4.898438 C 1.894531 -2.015625 2.371094 -0.789062 2.371094 -0.789062 C 4.265625 -0.0390625 8.371094 0.355469 10.703125 0.355469 C 13.035156 0.355469 17.496094 -0.0390625 19.390625 -0.789062 C 19.390625 -0.789062 20.0625 -2.726562 20.0625 -7.386719 C 20.0625 -12.046875 19.390625 -14.613281 19.390625 -14.613281 C 17.496094 -15.363281 13.035156 -15.835938 10.703125 -15.835938 C 8.964844 -15.835938 6.554688 -16.273438 6.554688 -16.273438 C 6.554688 -16.273438 6.238281 -16.785156 6.238281 -19.074219 C 6.238281 -21.367188 6.554688 -21.878906 6.554688 -21.878906 C 6.554688 -21.878906 8.964844 -22.273438 10.703125 -22.273438 C 15.046875 -22.273438 18.285156 -21.644531 19.707031 -21.367188 C 19.511719 -24.289062 19.074219 -25.355469 19.074219 -25.355469 C 17.179688 -26.105469 13.035156 -26.539062 10.703125 -26.539062 C 8.371094 -26.539062 3.949219 -26.105469 2.054688 -25.355469 C 2.054688 -25.355469 1.34375 -23.738281 1.34375 -19.074219 C 1.34375 -14.414062 2.054688 -12.796875 2.054688 -12.796875 C 3.949219 -12.046875 8.371094 -11.570312 10.703125 -11.570312 Z M 10.703125 -11.570312 "/></g></g></g><g fill="rgb(10.978699%, 15.289307%, 44.709778%)" fill-opacity="1"><g transform="translate(190.726735, 258.991682)"><g><path d="M 19.390625 -25.355469 C 17.496094 -26.105469 13.074219 -26.539062 10.742188 -26.539062 C 8.414062 -26.539062 3.949219 -26.105469 2.054688 -25.355469 C 2.054688 -25.355469 1.382812 -20.101562 1.382812 -13.074219 C 1.382812 -6.082031 2.054688 -0.789062 2.054688 -0.789062 C 3.949219 -0.0390625 8.414062 0.355469 10.742188 0.355469 C 13.074219 0.355469 17.496094 -0.0390625 19.390625 -0.789062 C 19.390625 -0.789062 20.101562 -6.042969 20.101562 -13.074219 C 20.101562 -20.101562 19.390625 -25.355469 19.390625 -25.355469 Z M 14.890625 -4.265625 C 14.890625 -4.265625 12.480469 -3.871094 10.742188 -3.871094 C 9.003906 -3.871094 6.554688 -4.265625 6.554688 -4.265625 C 6.554688 -4.265625 6.28125 -8.175781 6.28125 -13.074219 C 6.28125 -18.007812 6.554688 -21.878906 6.554688 -21.878906 C 6.554688 -21.878906 9.003906 -22.273438 10.742188 -22.273438 C 12.480469 -22.273438 14.890625 -21.878906 14.890625 -21.878906 C 14.890625 -21.878906 15.207031 -17.890625 15.207031 -13.074219 C 15.207031 -8.253906 14.890625 -4.265625 14.890625 -4.265625 Z M 14.890625 -4.265625 "/></g></g></g><g fill="rgb(10.978699%, 15.289307%, 44.709778%)" fill-opacity="1"><g transform="translate(214.264449, 258.991682)"><g><path d="M 16.746094 -6.398438 L 15.207031 -9.714844 C 17.023438 -9.914062 18.878906 -10.230469 19.945312 -10.664062 C 19.945312 -10.664062 20.617188 -12.757812 20.617188 -17.8125 C 20.617188 -22.867188 19.945312 -25.117188 19.945312 -25.117188 C 18.007812 -25.871094 13.585938 -26.304688 11.257812 -26.304688 L 1.578125 -26.304688 L 1.578125 0 L 6.476562 0 L 6.476562 -9.480469 L 10.148438 -9.480469 L 12.402344 -4.699219 C 13.191406 -3.042969 14.019531 -1.460938 14.890625 0 L 20.222656 0 C 19.273438 -1.539062 17.890625 -3.910156 16.746094 -6.398438 Z M 11.257812 -13.746094 L 6.476562 -13.746094 L 6.476562 -22.039062 L 11.257812 -22.039062 C 12.992188 -22.039062 15.402344 -21.644531 15.402344 -21.644531 C 15.402344 -21.644531 15.71875 -20.496094 15.71875 -17.8125 C 15.71875 -15.125 15.402344 -14.140625 15.402344 -14.140625 C 15.402344 -14.140625 12.992188 -13.746094 11.257812 -13.746094 Z M 11.257812 -13.746094 "/></g></g></g><g fill="rgb(10.978699%, 15.289307%, 44.709778%)" fill-opacity="1"><g transform="translate(238.35505, 258.991682)"><g><path d="M 1.816406 -26.304688 C 1.34375 -25.039062 0.949219 -23.460938 0.789062 -22.039062 L 9.320312 -22.039062 L 9.320312 0 L 14.179688 0 L 14.179688 -22.039062 L 21.644531 -22.039062 C 22.078125 -23.261719 22.511719 -24.882812 22.628906 -26.304688 Z M 1.816406 -26.304688 "/></g></g></g><g fill="rgb(10.978699%, 15.289307%, 44.709778%)" fill-opacity="1"><g transform="translate(263.867362, 258.991682)"><g><path d="M 6.398438 0 L 6.398438 -13.074219 C 6.398438 -18.007812 6.714844 -21.878906 6.714844 -21.878906 C 6.714844 -21.878906 9.164062 -22.273438 10.859375 -22.273438 C 12.597656 -22.273438 15.046875 -21.878906 15.046875 -21.878906 C 15.046875 -21.878906 15.363281 -17.890625 15.363281 -13.074219 L 15.363281 0 L 20.261719 0 L 20.261719 -13.074219 C 20.261719 -20.101562 19.550781 -25.355469 19.550781 -25.355469 C 17.652344 -26.105469 13.191406 -26.539062 10.859375 -26.539062 C 8.570312 -26.539062 4.109375 -26.105469 2.210938 -25.355469 C 2.210938 -25.355469 1.5 -20.101562 1.5 -13.074219 L 1.5 0 Z M 6.398438 0 "/></g></g></g><g fill="rgb(10.978699%, 15.289307%, 44.709778%)" fill-opacity="1"><g transform="translate(287.642026, 258.991682)"><g><path d="M 1.5 -26.304688 L 1.5 0 L 18.484375 0 C 18.917969 -1.265625 19.351562 -2.84375 19.472656 -4.265625 L 6.398438 -4.265625 L 6.398438 -11.414062 L 14.058594 -11.414062 C 14.496094 -12.636719 14.929688 -14.21875 15.046875 -15.640625 L 6.398438 -15.640625 L 6.398438 -22.039062 L 18.484375 -22.039062 C 18.917969 -23.261719 19.351562 -24.882812 19.472656 -26.304688 Z M 1.5 -26.304688 "/></g></g></g><g fill="rgb(10.978699%, 15.289307%, 44.709778%)" fill-opacity="1"><g transform="translate(310.034473, 258.991682)"><g><path d="M 16.746094 -6.398438 L 15.207031 -9.714844 C 17.023438 -9.914062 18.878906 -10.230469 19.945312 -10.664062 C 19.945312 -10.664062 20.617188 -12.757812 20.617188 -17.8125 C 20.617188 -22.867188 19.945312 -25.117188 19.945312 -25.117188 C 18.007812 -25.871094 13.585938 -26.304688 11.257812 -26.304688 L 1.578125 -26.304688 L 1.578125 0 L 6.476562 0 L 6.476562 -9.480469 L 10.148438 -9.480469 L 12.402344 -4.699219 C 13.191406 -3.042969 14.019531 -1.460938 14.890625 0 L 20.222656 0 C 19.273438 -1.539062 17.890625 -3.910156 16.746094 -6.398438 Z M 11.257812 -13.746094 L 6.476562 -13.746094 L 6.476562 -22.039062 L 11.257812 -22.039062 C 12.992188 -22.039062 15.402344 -21.644531 15.402344 -21.644531 C 15.402344 -21.644531 15.71875 -20.496094 15.71875 -17.8125 C 15.71875 -15.125 15.402344 -14.140625 15.402344 -14.140625 C 15.402344 -14.140625 12.992188 -13.746094 11.257812 -13.746094 Z M 11.257812 -13.746094 "/></g></g></g></svg>